<svg xmlns="http://www.w3.org/2000/svg" xmlns:xlink="http://www.w3.org/1999/xlink" width="2000" zoomAndPan="magnify" viewBox="0 0 1500 1499.999933" height="2000" preserveAspectRatio="xMidYMid meet" version="1.0"><defs><clipPath id="c21dab1abf"><path d="M 0 71.25 L 715 71.25 L 715 1428.75 L 0 1428.75 Z M 0 71.25 " clip-rule="nonzero"/></clipPath></defs><g clip-path="url(#c21dab1abf)"><path fill="#f59e0b" d="M 602.304688 104.277344 C 479.855469 180.621094 273.289062 288.515625 62.371094 305.292969 C 29.453125 307.914062 3.898438 334.0625 2.058594 367.027344 C -9.332031 570.996094 9.171875 1239.671875 714.953125 1428.78125 L 714.953125 71.238281 C 676.289062 71.238281 637.625 82.25 602.304688 104.269531 Z M 494.390625 587.839844 C 543.664062 587.839844 583.59375 627.78125 583.59375 677.042969 C 583.59375 715.164062 559.675781 747.691406 526.035156 760.46875 L 538.992188 794.621094 L 583.59375 912.199219 L 405.191406 912.199219 L 449.792969 794.621094 L 462.75 760.46875 C 429.109375 747.699219 405.191406 715.164062 405.191406 677.042969 C 405.191406 627.769531 445.128906 587.839844 494.390625 587.839844 Z M 494.390625 587.839844 " fill-opacity="1" fill-rule="evenodd"/></g><path fill="#161d26" d="M 1135.433594 307.523438 L 1053.253906 307.523438 C 1020.527344 307.523438 992.359375 295.859375 969.214844 272.714844 L 960.003906 263.503906 C 936.859375 240.359375 925.199219 212.191406 925.199219 179.464844 L 925.199219 167.371094 L 855.121094 167.371094 L 855.121094 237.445312 L 867.214844 237.445312 C 899.945312 237.445312 928.109375 249.109375 951.253906 272.253906 L 960.464844 281.464844 C 983.609375 304.609375 995.273438 332.773438 995.273438 365.503906 L 995.273438 447.679688 L 1135.433594 447.679688 Z M 1065.355469 97.285156 L 995.28125 97.285156 L 995.28125 167.363281 L 1065.355469 167.363281 Z M 1170.480469 1078.394531 L 1100.40625 1078.394531 L 1100.40625 1148.46875 L 1170.480469 1148.46875 Z M 1240.554688 1253.59375 L 1100.394531 1253.59375 L 1100.394531 1393.753906 L 1240.554688 1393.753906 Z M 925.199219 1253.59375 L 855.121094 1253.59375 L 855.121094 1323.667969 L 925.199219 1323.667969 Z M 890.160156 412.644531 L 820.085938 412.644531 L 820.085938 482.71875 L 890.160156 482.71875 Z M 995.28125 1008.320312 L 855.121094 1008.320312 L 855.121094 1148.480469 L 995.28125 1148.480469 Z M 1499.820312 657.925781 L 1359.660156 657.925781 L 1359.660156 798.085938 L 1499.820312 798.085938 Z M 1345.675781 1008.320312 L 1342.8125 1008.320312 C 1303.949219 1008.320312 1270.5 994.46875 1243.015625 966.984375 L 1204.339844 928.3125 C 1158.535156 882.503906 1135.453125 826.765625 1135.453125 761.984375 L 1135.453125 694.039062 C 1135.453125 629.257812 1158.546875 573.515625 1204.339844 527.710938 L 1232.507812 499.542969 C 1266.984375 465.070312 1308.941406 447.691406 1357.691406 447.691406 L 1415.761719 447.691406 L 1415.761719 307.53125 L 1275.601562 307.53125 L 1275.601562 365.601562 C 1275.601562 414.351562 1258.222656 456.308594 1223.75 490.785156 L 1195.582031 518.953125 C 1149.777344 564.757812 1094.035156 587.839844 1029.253906 587.839844 L 855.121094 587.839844 L 855.121094 868.160156 L 1029.253906 868.160156 C 1094.035156 868.160156 1149.777344 891.253906 1195.582031 937.050781 L 1234.265625 975.734375 C 1261.75 1003.21875 1275.601562 1036.667969 1275.601562 1075.53125 L 1275.601562 1078.394531 L 1345.675781 1078.394531 Z M 1345.675781 1008.320312 " fill-opacity="1" fill-rule="evenodd"/></svg>