<svg xmlns="http://www.w3.org/2000/svg" xmlns:xlink="http://www.w3.org/1999/xlink" width="400" zoomAndPan="magnify" viewBox="0 0 300 74.999997" height="100" preserveAspectRatio="xMidYMid meet" version="1.0"><defs><g/><clipPath id="728899e8e7"><path d="M 0.875 1.480469 L 39 1.480469 L 39 73.5 L 0.875 73.5 Z M 0.875 1.480469 " clip-rule="nonzero"/></clipPath><clipPath id="81365980fa"><path d="M 44 2 L 80.1875 2 L 80.1875 72 L 44 72 Z M 44 2 " clip-rule="nonzero"/></clipPath><clipPath id="3ecc96d754"><path d="M 100 0 L 264.519531 0 L 264.519531 75 L 100 75 Z M 100 0 " clip-rule="nonzero"/></clipPath><clipPath id="43fa6273b6"><rect x="0" width="165" y="0" height="75"/></clipPath><clipPath id="417ff423f6"><rect x="0" width="265" y="0" height="75"/></clipPath></defs><g transform="matrix(1, 0, 0, 1, 17, -0.000000000000001893)"><g clip-path="url(#417ff423f6)"><g clip-path="url(#728899e8e7)"><path fill="#f59e0b" d="M 32.835938 3.234375 C 26.339844 7.285156 15.378906 13.011719 4.1875 13.902344 C 2.441406 14.039062 1.082031 15.429688 0.988281 17.175781 C 0.382812 28 1.363281 63.480469 38.816406 73.515625 L 38.816406 1.480469 C 36.761719 1.480469 34.710938 2.066406 32.835938 3.234375 Z M 27.109375 28.894531 C 29.726562 28.894531 31.84375 31.011719 31.84375 33.628906 C 31.84375 35.652344 30.574219 37.375 28.789062 38.054688 L 29.476562 39.867188 L 31.84375 46.105469 L 22.378906 46.105469 L 24.746094 39.867188 L 25.433594 38.054688 C 23.648438 37.375 22.378906 35.652344 22.378906 33.628906 C 22.378906 31.011719 24.496094 28.894531 27.109375 28.894531 Z M 27.109375 28.894531 " fill-opacity="1" fill-rule="evenodd"/></g><g clip-path="url(#81365980fa)"><path fill="#161d26" d="M 61.125 14.019531 L 56.765625 14.019531 C 55.03125 14.019531 53.535156 13.402344 52.308594 12.171875 L 51.816406 11.683594 C 50.589844 10.457031 49.972656 8.960938 49.972656 7.226562 L 49.972656 6.582031 L 46.253906 6.582031 L 46.253906 10.300781 L 46.894531 10.300781 C 48.632812 10.300781 50.125 10.921875 51.355469 12.148438 L 51.84375 12.636719 C 53.070312 13.863281 53.6875 15.359375 53.6875 17.097656 L 53.6875 21.457031 L 61.125 21.457031 Z M 57.410156 2.863281 L 53.691406 2.863281 L 53.691406 6.582031 L 57.410156 6.582031 Z M 62.988281 54.925781 L 59.269531 54.925781 L 59.269531 58.644531 L 62.988281 58.644531 Z M 66.703125 64.222656 L 59.265625 64.222656 L 59.265625 71.660156 L 66.703125 71.660156 Z M 49.972656 64.222656 L 46.253906 64.222656 L 46.253906 67.941406 L 49.972656 67.941406 Z M 48.113281 19.597656 L 44.394531 19.597656 L 44.394531 23.316406 L 48.113281 23.316406 Z M 53.691406 51.207031 L 46.253906 51.207031 L 46.253906 58.644531 L 53.691406 58.644531 Z M 80.460938 32.613281 L 73.023438 32.613281 L 73.023438 40.050781 L 80.460938 40.050781 Z M 72.28125 51.207031 L 72.132812 51.207031 C 70.070312 51.207031 68.292969 50.472656 66.835938 49.011719 L 64.785156 46.960938 C 62.351562 44.53125 61.128906 41.574219 61.128906 38.136719 L 61.128906 34.53125 C 61.128906 31.09375 62.351562 28.132812 64.785156 25.703125 L 66.277344 24.207031 C 68.105469 22.378906 70.332031 21.457031 72.921875 21.457031 L 76 21.457031 L 76 14.019531 L 68.566406 14.019531 L 68.566406 17.101562 C 68.566406 19.6875 67.640625 21.914062 65.8125 23.746094 L 64.320312 25.238281 C 61.886719 27.667969 58.929688 28.894531 55.492188 28.894531 L 46.253906 28.894531 L 46.253906 43.769531 L 55.492188 43.769531 C 58.929688 43.769531 61.886719 44.996094 64.320312 47.425781 L 66.371094 49.476562 C 67.828125 50.933594 68.566406 52.710938 68.566406 54.773438 L 68.566406 54.925781 L 72.28125 54.925781 Z M 72.28125 51.207031 " fill-opacity="1" fill-rule="evenodd"/></g><g clip-path="url(#3ecc96d754)"><g transform="matrix(1, 0, 0, 1, 100, -0.000000000000001893)"><g clip-path="url(#43fa6273b6)"><g fill="#161d26" fill-opacity="1"><g transform="translate(0.722853, 38.724482)"><g><path d="M 2.25 -28.5625 L 9.34375 -28.5625 L 9.34375 0 L 2.25 0 Z M 2.25 -28.5625 "/></g></g></g><g fill="#161d26" fill-opacity="1"><g transform="translate(12.314373, 38.724482)"><g><path d="M 18.734375 -19.265625 C 18.734375 -20.296875 18.421875 -21.109375 17.796875 -21.703125 C 17.171875 -22.304688 16.21875 -22.609375 14.9375 -22.609375 L 9.34375 -22.609375 L 9.34375 -15.875 L 14.9375 -15.875 C 15.78125 -15.875 16.476562 -16.003906 17.03125 -16.265625 C 17.59375 -16.523438 18.015625 -16.910156 18.296875 -17.421875 C 18.585938 -17.941406 18.734375 -18.554688 18.734375 -19.265625 Z M 15.390625 -28.5625 C 17.753906 -28.5625 19.71875 -28.132812 21.28125 -27.28125 C 22.84375 -26.425781 24.007812 -25.289062 24.78125 -23.875 C 25.5625 -22.457031 25.953125 -20.921875 25.953125 -19.265625 C 25.953125 -18.117188 25.738281 -16.988281 25.3125 -15.875 C 24.894531 -14.757812 24.257812 -13.753906 23.40625 -12.859375 C 22.550781 -11.960938 21.457031 -11.25 20.125 -10.71875 C 18.789062 -10.1875 17.210938 -9.921875 15.390625 -9.921875 L 9.34375 -9.921875 L 9.34375 0 L 2.25 0 L 2.25 -28.5625 Z M 18.984375 -12.359375 L 26.484375 0 L 18.65625 0 L 11.546875 -12.359375 Z M 18.984375 -12.359375 "/></g></g></g><g fill="#161d26" fill-opacity="1"><g transform="translate(39.946281, 38.724482)"><g><path d="M 19.015625 -19.953125 C 19.015625 -20.910156 18.710938 -21.59375 18.109375 -22 C 17.515625 -22.40625 16.660156 -22.609375 15.546875 -22.609375 L 9.34375 -22.609375 L 9.34375 -17.296875 L 15.46875 -17.296875 C 16.582031 -17.296875 17.453125 -17.503906 18.078125 -17.921875 C 18.703125 -18.347656 19.015625 -19.023438 19.015625 -19.953125 Z M 2.25 0 L 2.25 -28.5625 L 16.984375 -28.5625 C 18.941406 -28.5625 20.601562 -28.25 21.96875 -27.625 C 23.34375 -27 24.390625 -26.117188 25.109375 -24.984375 C 25.835938 -23.859375 26.203125 -22.535156 26.203125 -21.015625 C 26.203125 -19.734375 25.960938 -18.664062 25.484375 -17.8125 C 25.003906 -16.957031 24.335938 -16.285156 23.484375 -15.796875 C 22.628906 -15.304688 21.644531 -14.976562 20.53125 -14.8125 L 20.53125 -14.484375 C 21.882812 -14.328125 23.03125 -13.96875 23.96875 -13.40625 C 24.914062 -12.84375 25.632812 -12.09375 26.125 -11.15625 C 26.613281 -10.21875 26.859375 -9.113281 26.859375 -7.84375 C 26.859375 -6.257812 26.492188 -4.878906 25.765625 -3.703125 C 25.046875 -2.535156 23.984375 -1.625 22.578125 -0.96875 C 21.179688 -0.320312 19.460938 0 17.421875 0 Z M 9.34375 -5.953125 L 16.125 -5.953125 C 17.257812 -5.953125 18.140625 -6.195312 18.765625 -6.6875 C 19.398438 -7.175781 19.71875 -7.898438 19.71875 -8.859375 C 19.71875 -9.835938 19.390625 -10.5625 18.734375 -11.03125 C 18.078125 -11.507812 17.179688 -11.75 16.046875 -11.75 L 9.34375 -11.75 Z M 9.34375 -5.953125 "/></g></g></g><g fill="#f59e0b" fill-opacity="1"><g transform="translate(0.722853, 67.346921)"><g><path d="M 1.046875 -21.421875 L 18.421875 -21.421875 L 18.421875 -17.96875 L 11.8125 -17.96875 L 11.8125 0 L 7.6875 0 L 7.6875 -17.96875 L 1.046875 -17.96875 Z M 1.046875 -21.421875 "/></g></g></g><g fill="#f59e0b" fill-opacity="1"><g transform="translate(17.008565, 67.346921)"><g><path d="M 8.84375 0.21875 C 7.3125 0.21875 5.960938 -0.117188 4.796875 -0.796875 C 3.640625 -1.472656 2.738281 -2.410156 2.09375 -3.609375 C 1.445312 -4.816406 1.125 -6.207031 1.125 -7.78125 C 1.125 -9.289062 1.441406 -10.625 2.078125 -11.78125 C 2.710938 -12.945312 3.59375 -13.859375 4.71875 -14.515625 C 5.851562 -15.179688 7.144531 -15.515625 8.59375 -15.515625 C 10.070312 -15.515625 11.367188 -15.195312 12.484375 -14.5625 C 13.609375 -13.9375 14.484375 -13.054688 15.109375 -11.921875 C 15.734375 -10.785156 16.046875 -9.460938 16.046875 -7.953125 C 16.046875 -7.734375 16.03125 -7.484375 16 -7.203125 C 15.96875 -6.929688 15.929688 -6.644531 15.890625 -6.34375 L 5.359375 -6.34375 C 5.441406 -5.6875 5.648438 -5.128906 5.984375 -4.671875 C 6.316406 -4.210938 6.734375 -3.851562 7.234375 -3.59375 C 7.734375 -3.34375 8.300781 -3.21875 8.9375 -3.21875 C 9.695312 -3.21875 10.375 -3.375 10.96875 -3.6875 C 11.570312 -4 12.007812 -4.410156 12.28125 -4.921875 L 15.765625 -3.890625 C 15.148438 -2.578125 14.234375 -1.5625 13.015625 -0.84375 C 11.804688 -0.132812 10.414062 0.21875 8.84375 0.21875 Z M 11.75 -9.1875 C 11.726562 -9.757812 11.570312 -10.273438 11.28125 -10.734375 C 11 -11.191406 10.625 -11.546875 10.15625 -11.796875 C 9.6875 -12.054688 9.164062 -12.1875 8.59375 -12.1875 C 8.09375 -12.1875 7.613281 -12.050781 7.15625 -11.78125 C 6.707031 -11.519531 6.328125 -11.171875 6.015625 -10.734375 C 5.703125 -10.296875 5.492188 -9.78125 5.390625 -9.1875 Z M 11.75 -9.1875 "/></g></g></g><g fill="#f59e0b" fill-opacity="1"><g transform="translate(34.15142, 67.346921)"><g><path d="M 8.625 0.21875 C 7.132812 0.21875 5.828125 -0.109375 4.703125 -0.765625 C 3.585938 -1.421875 2.710938 -2.332031 2.078125 -3.5 C 1.441406 -4.675781 1.125 -6.039062 1.125 -7.59375 C 1.125 -9.164062 1.441406 -10.539062 2.078125 -11.71875 C 2.710938 -12.90625 3.597656 -13.832031 4.734375 -14.5 C 5.878906 -15.175781 7.195312 -15.515625 8.6875 -15.515625 C 10.300781 -15.515625 11.734375 -15.113281 12.984375 -14.3125 C 14.242188 -13.519531 15.128906 -12.453125 15.640625 -11.109375 L 12 -10.078125 C 11.75 -10.660156 11.34375 -11.125 10.78125 -11.46875 C 10.226562 -11.820312 9.59375 -12 8.875 -12 C 8.164062 -12 7.539062 -11.8125 7 -11.4375 C 6.457031 -11.070312 6.035156 -10.5625 5.734375 -9.90625 C 5.441406 -9.257812 5.296875 -8.5 5.296875 -7.625 C 5.296875 -6.289062 5.617188 -5.238281 6.265625 -4.46875 C 6.921875 -3.695312 7.800781 -3.3125 8.90625 -3.3125 C 9.601562 -3.3125 10.234375 -3.476562 10.796875 -3.8125 C 11.367188 -4.144531 11.800781 -4.609375 12.09375 -5.203125 L 15.703125 -4.15625 C 15.148438 -2.832031 14.234375 -1.769531 12.953125 -0.96875 C 11.679688 -0.175781 10.238281 0.21875 8.625 0.21875 Z M 8.625 0.21875 "/></g></g></g><g fill="#f59e0b" fill-opacity="1"><g transform="translate(50.957539, 67.346921)"><g><path d="M 1.890625 -22.03125 L 5.8125 -22.03125 L 5.8125 -13.8125 C 6.28125 -14.3125 6.863281 -14.71875 7.5625 -15.03125 C 8.269531 -15.351562 9.066406 -15.515625 9.953125 -15.515625 C 11.109375 -15.515625 12.117188 -15.257812 12.984375 -14.75 C 13.859375 -14.238281 14.53125 -13.5 15 -12.53125 C 15.46875 -11.5625 15.703125 -10.363281 15.703125 -8.9375 L 15.703125 0 L 11.578125 0 L 11.578125 -8.421875 C 11.578125 -9.597656 11.335938 -10.484375 10.859375 -11.078125 C 10.390625 -11.671875 9.6875 -11.96875 8.75 -11.96875 C 7.789062 -11.96875 7.0625 -11.644531 6.5625 -11 C 6.0625 -10.363281 5.8125 -9.453125 5.8125 -8.265625 L 5.8125 0 L 1.890625 0 Z M 1.890625 -22.03125 "/></g></g></g><g fill="#f59e0b" fill-opacity="1"><g transform="translate(68.31468, 67.346921)"><g><path d="M 1.890625 -15.296875 L 5.453125 -15.296875 L 5.71875 -13.75 C 6.207031 -14.289062 6.804688 -14.71875 7.515625 -15.03125 C 8.222656 -15.351562 8.984375 -15.515625 9.796875 -15.515625 C 10.992188 -15.515625 12.015625 -15.257812 12.859375 -14.75 C 13.710938 -14.238281 14.367188 -13.5 14.828125 -12.53125 C 15.285156 -11.5625 15.515625 -10.363281 15.515625 -8.9375 L 15.515625 0 L 11.578125 0 L 11.578125 -8.421875 C 11.578125 -9.597656 11.335938 -10.484375 10.859375 -11.078125 C 10.390625 -11.671875 9.6875 -11.96875 8.75 -11.96875 C 7.789062 -11.96875 7.0625 -11.664062 6.5625 -11.0625 C 6.0625 -10.457031 5.8125 -9.566406 5.8125 -8.390625 L 5.8125 0 L 1.890625 0 Z M 1.890625 -15.296875 "/></g></g></g><g fill="#f59e0b" fill-opacity="1"><g transform="translate(85.488154, 67.346921)"><g><path d="M 8.84375 0.21875 C 7.351562 0.21875 6.023438 -0.101562 4.859375 -0.75 C 3.703125 -1.394531 2.789062 -2.300781 2.125 -3.46875 C 1.457031 -4.644531 1.125 -6.03125 1.125 -7.625 C 1.125 -9.238281 1.46875 -10.632812 2.15625 -11.8125 C 2.84375 -13 3.773438 -13.910156 4.953125 -14.546875 C 6.140625 -15.191406 7.46875 -15.515625 8.9375 -15.515625 C 10.40625 -15.515625 11.726562 -15.191406 12.90625 -14.546875 C 14.09375 -13.910156 15.035156 -13.003906 15.734375 -11.828125 C 16.429688 -10.660156 16.78125 -9.28125 16.78125 -7.6875 C 16.78125 -6.070312 16.425781 -4.671875 15.71875 -3.484375 C 15.007812 -2.304688 14.054688 -1.394531 12.859375 -0.75 C 11.671875 -0.101562 10.332031 0.21875 8.84375 0.21875 Z M 8.8125 -3.3125 C 9.445312 -3.3125 10.050781 -3.46875 10.625 -3.78125 C 11.195312 -4.09375 11.664062 -4.570312 12.03125 -5.21875 C 12.394531 -5.863281 12.578125 -6.6875 12.578125 -7.6875 C 12.578125 -8.644531 12.40625 -9.441406 12.0625 -10.078125 C 11.71875 -10.722656 11.265625 -11.203125 10.703125 -11.515625 C 10.140625 -11.835938 9.53125 -12 8.875 -12 C 8.238281 -12 7.648438 -11.835938 7.109375 -11.515625 C 6.578125 -11.203125 6.148438 -10.722656 5.828125 -10.078125 C 5.515625 -9.441406 5.359375 -8.625 5.359375 -7.625 C 5.359375 -6.664062 5.507812 -5.863281 5.8125 -5.21875 C 6.125 -4.570312 6.539062 -4.09375 7.0625 -3.78125 C 7.59375 -3.46875 8.175781 -3.3125 8.8125 -3.3125 Z M 8.8125 -3.3125 "/></g></g></g><g fill="#f59e0b" fill-opacity="1"><g transform="translate(103.365696, 67.346921)"><g><path d="M 1.890625 -22.03125 L 5.8125 -22.03125 L 5.8125 0 L 1.890625 0 Z M 1.890625 -22.03125 "/></g></g></g><g fill="#f59e0b" fill-opacity="1"><g transform="translate(111.049369, 67.346921)"><g><path d="M 8.84375 0.21875 C 7.351562 0.21875 6.023438 -0.101562 4.859375 -0.75 C 3.703125 -1.394531 2.789062 -2.300781 2.125 -3.46875 C 1.457031 -4.644531 1.125 -6.03125 1.125 -7.625 C 1.125 -9.238281 1.46875 -10.632812 2.15625 -11.8125 C 2.84375 -13 3.773438 -13.910156 4.953125 -14.546875 C 6.140625 -15.191406 7.46875 -15.515625 8.9375 -15.515625 C 10.40625 -15.515625 11.726562 -15.191406 12.90625 -14.546875 C 14.09375 -13.910156 15.035156 -13.003906 15.734375 -11.828125 C 16.429688 -10.660156 16.78125 -9.28125 16.78125 -7.6875 C 16.78125 -6.070312 16.425781 -4.671875 15.71875 -3.484375 C 15.007812 -2.304688 14.054688 -1.394531 12.859375 -0.75 C 11.671875 -0.101562 10.332031 0.21875 8.84375 0.21875 Z M 8.8125 -3.3125 C 9.445312 -3.3125 10.050781 -3.46875 10.625 -3.78125 C 11.195312 -4.09375 11.664062 -4.570312 12.03125 -5.21875 C 12.394531 -5.863281 12.578125 -6.6875 12.578125 -7.6875 C 12.578125 -8.644531 12.40625 -9.441406 12.0625 -10.078125 C 11.71875 -10.722656 11.265625 -11.203125 10.703125 -11.515625 C 10.140625 -11.835938 9.53125 -12 8.875 -12 C 8.238281 -12 7.648438 -11.835938 7.109375 -11.515625 C 6.578125 -11.203125 6.148438 -10.722656 5.828125 -10.078125 C 5.515625 -9.441406 5.359375 -8.625 5.359375 -7.625 C 5.359375 -6.664062 5.507812 -5.863281 5.8125 -5.21875 C 6.125 -4.570312 6.539062 -4.09375 7.0625 -3.78125 C 7.59375 -3.46875 8.175781 -3.3125 8.8125 -3.3125 Z M 8.8125 -3.3125 "/></g></g></g><g fill="#f59e0b" fill-opacity="1"><g transform="translate(128.926921, 67.346921)"><g><path d="M 12.890625 -15.296875 L 16.4375 -15.296875 L 16.4375 -2.265625 C 16.4375 -0.523438 16.003906 0.96875 15.140625 2.21875 C 14.285156 3.476562 13.046875 4.441406 11.421875 5.109375 C 9.804688 5.785156 7.863281 6.125 5.59375 6.125 L 4.984375 2.8125 C 7.453125 2.769531 9.320312 2.332031 10.59375 1.5 C 11.875 0.664062 12.515625 -0.535156 12.515625 -2.109375 L 12.515625 -2.171875 L 13.046875 -2.359375 C 12.554688 -1.640625 11.878906 -1.03125 11.015625 -0.53125 C 10.160156 -0.03125 9.140625 0.21875 7.953125 0.21875 C 6.609375 0.21875 5.425781 -0.109375 4.40625 -0.765625 C 3.382812 -1.421875 2.582031 -2.332031 2 -3.5 C 1.414062 -4.675781 1.125 -6.0625 1.125 -7.65625 C 1.125 -9.25 1.414062 -10.632812 2 -11.8125 C 2.582031 -13 3.382812 -13.910156 4.40625 -14.546875 C 5.425781 -15.191406 6.609375 -15.515625 7.953125 -15.515625 C 8.648438 -15.515625 9.300781 -15.414062 9.90625 -15.21875 C 10.507812 -15.03125 11.039062 -14.773438 11.5 -14.453125 C 11.957031 -14.140625 12.335938 -13.789062 12.640625 -13.40625 Z M 5.359375 -7.65625 C 5.359375 -6.363281 5.679688 -5.320312 6.328125 -4.53125 C 6.984375 -3.75 7.863281 -3.359375 8.96875 -3.359375 C 9.601562 -3.359375 10.1875 -3.523438 10.71875 -3.859375 C 11.25 -4.203125 11.679688 -4.703125 12.015625 -5.359375 C 12.347656 -6.015625 12.515625 -6.78125 12.515625 -7.65625 C 12.515625 -8.570312 12.347656 -9.34375 12.015625 -9.96875 C 11.679688 -10.601562 11.242188 -11.085938 10.703125 -11.421875 C 10.160156 -11.765625 9.582031 -11.9375 8.96875 -11.9375 C 7.863281 -11.9375 6.984375 -11.539062 6.328125 -10.75 C 5.679688 -9.96875 5.359375 -8.9375 5.359375 -7.65625 Z M 5.359375 -7.65625 "/></g></g></g><g fill="#f59e0b" fill-opacity="1"><g transform="translate(147.233042, 67.346921)"><g><path d="M 12.390625 -15.296875 L 16.59375 -15.296875 L 7.5625 6.125 L 3.609375 6.125 L 6.484375 -0.546875 L 0.453125 -15.296875 L 4.84375 -15.296875 L 8.578125 -5.234375 Z M 12.390625 -15.296875 "/></g></g></g></g></g></g></g></g></svg>