<svg xmlns="http://www.w3.org/2000/svg" xmlns:xlink="http://www.w3.org/1999/xlink" width="2000" zoomAndPan="magnify" viewBox="0 0 1500 1499.999933" height="2000" preserveAspectRatio="xMidYMid meet" version="1.0"><defs><clipPath id="623f0abc85"><path d="M 750 0 C 335.785156 0 0 335.785156 0 750 C 0 1164.214844 335.785156 1500 750 1500 C 1164.214844 1500 1500 1164.214844 1500 750 C 1500 335.785156 1164.214844 0 750 0 Z M 750 0 " clip-rule="nonzero"/></clipPath><clipPath id="4a0e9d7bd6"><path d="M 0 0 L 1500 0 L 1500 1500 L 0 1500 Z M 0 0 " clip-rule="nonzero"/></clipPath><clipPath id="83e9b6b1d9"><path d="M 750 0 C 335.785156 0 0 335.785156 0 750 C 0 1164.214844 335.785156 1500 750 1500 C 1164.214844 1500 1500 1164.214844 1500 750 C 1500 335.785156 1164.214844 0 750 0 Z M 750 0 " clip-rule="nonzero"/></clipPath><clipPath id="487df80078"><rect x="0" width="1500" y="0" height="1500"/></clipPath><clipPath id="febdf78043"><path d="M 81.292969 171.328125 L 719 171.328125 L 719 1381.828125 L 81.292969 1381.828125 Z M 81.292969 171.328125 " clip-rule="nonzero"/></clipPath><clipPath id="982ec480dc"><path d="M 812 194 L 1418.542969 194 L 1418.542969 1351 L 812 1351 Z M 812 194 " clip-rule="nonzero"/></clipPath></defs><g clip-path="url(#623f0abc85)"><g transform="matrix(1, 0, 0, 1, 0, 0.000000000000112861)"><g clip-path="url(#487df80078)"><g clip-path="url(#4a0e9d7bd6)"><g clip-path="url(#83e9b6b1d9)"><rect x="-330" width="2160" fill="#ffffff" height="2159.999904" y="-329.999985" fill-opacity="1"/></g></g></g></g></g><g clip-path="url(#febdf78043)"><path fill="#f59e0b" d="M 618.3125 200.773438 C 509.136719 268.84375 324.960938 365.042969 136.90625 380 C 107.554688 382.335938 84.769531 405.648438 83.132812 435.042969 C 72.976562 616.898438 89.472656 1213.089844 718.746094 1381.703125 L 718.746094 171.316406 C 684.273438 171.316406 649.800781 181.132812 618.3125 200.765625 Z M 522.09375 631.921875 C 566.027344 631.921875 601.625 667.53125 601.625 711.453125 C 601.625 745.441406 580.300781 774.441406 550.308594 785.832031 L 561.859375 816.285156 L 601.625 921.117188 L 442.5625 921.117188 L 482.328125 816.285156 L 493.882812 785.832031 C 463.886719 774.449219 442.5625 745.441406 442.5625 711.453125 C 442.5625 667.519531 478.171875 631.921875 522.09375 631.921875 Z M 522.09375 631.921875 " fill-opacity="1" fill-rule="evenodd"/></g><g clip-path="url(#982ec480dc)"><path fill="#161d26" d="M 1093.648438 381.988281 L 1020.375 381.988281 C 991.195312 381.988281 966.082031 371.589844 945.449219 350.953125 L 937.234375 342.742188 C 916.601562 322.105469 906.203125 296.992188 906.203125 267.8125 L 906.203125 257.03125 L 843.722656 257.03125 L 843.722656 319.507812 L 854.507812 319.507812 C 883.6875 319.507812 908.800781 329.90625 929.433594 350.542969 L 937.648438 358.753906 C 958.28125 379.390625 968.679688 404.503906 968.679688 433.683594 L 968.679688 506.953125 L 1093.648438 506.953125 Z M 1031.167969 194.542969 L 968.691406 194.542969 L 968.691406 257.019531 L 1031.167969 257.019531 Z M 1124.894531 1069.296875 L 1062.417969 1069.296875 L 1062.417969 1131.777344 L 1124.894531 1131.777344 Z M 1187.375 1225.503906 L 1062.40625 1225.503906 L 1062.40625 1350.472656 L 1187.375 1350.472656 Z M 906.203125 1225.503906 L 843.722656 1225.503906 L 843.722656 1287.984375 L 906.203125 1287.984375 Z M 874.960938 475.714844 L 812.484375 475.714844 L 812.484375 538.191406 L 874.960938 538.191406 Z M 968.691406 1006.820312 L 843.722656 1006.820312 L 843.722656 1131.785156 L 968.691406 1131.785156 Z M 1418.535156 694.40625 L 1293.570312 694.40625 L 1293.570312 819.375 L 1418.535156 819.375 Z M 1281.101562 1006.820312 L 1278.550781 1006.820312 C 1243.898438 1006.820312 1214.074219 994.46875 1189.570312 969.964844 L 1155.085938 935.484375 C 1114.246094 894.644531 1093.664062 844.945312 1093.664062 787.183594 L 1093.664062 726.605469 C 1093.664062 668.847656 1114.253906 619.148438 1155.085938 578.308594 L 1180.199219 553.195312 C 1210.9375 522.457031 1248.347656 506.960938 1291.8125 506.960938 L 1343.589844 506.960938 L 1343.589844 381.996094 L 1218.621094 381.996094 L 1218.621094 433.773438 C 1218.621094 477.238281 1203.128906 514.648438 1172.390625 545.382812 L 1147.277344 570.496094 C 1106.4375 611.339844 1056.738281 631.921875 998.980469 631.921875 L 843.722656 631.921875 L 843.722656 881.851562 L 998.980469 881.851562 C 1056.738281 881.851562 1106.4375 902.445312 1147.277344 943.273438 L 1181.769531 977.765625 C 1206.273438 1002.269531 1218.621094 1032.09375 1218.621094 1066.746094 L 1218.621094 1069.296875 L 1281.101562 1069.296875 Z M 1281.101562 1006.820312 " fill-opacity="1" fill-rule="evenodd"/></g></svg>